<svg xmlns="http://www.w3.org/2000/svg" xmlns:xlink="http://www.w3.org/1999/xlink" version="1.1" x="0px" y="0px" viewBox="0 0 450 562.5" style="enable-background:new 0 0 450 450;" xml:space="preserve"><g><g><path d="M248,396.9h-48.6c-2.8,0-5-2.2-5-5v-27.5c-15.2-3.4-29.5-9.3-42.6-17.7l-19.4,19.4c-2,2-5.1,2-7.1,0L91,331.9    c-0.9-0.9-1.5-2.2-1.5-3.5s0.5-2.6,1.5-3.5l19.4-19.4c-8.4-13.1-14.3-27.4-17.7-42.6H65.3c-2.8,0-5-2.2-5-5v-48.6c0-2.8,2.2-5,5-5    h27.5c3.4-15.2,9.3-29.5,17.7-42.6L91,142.2c-0.9-0.9-1.5-2.2-1.5-3.5s0.5-2.6,1.5-3.5l34.3-34.3c2-2,5.1-2,7.1,0l19.4,19.4    c13.1-8.4,27.4-14.3,42.6-17.7V75.1c0-2.8,2.2-5,5-5h48.6c2.8,0,5,2.2,5,5v27.5c15.2,3.4,29.5,9.3,42.6,17.7l19.4-19.4    c2-2,5.1-2,7.1,0l34.3,34.3c2,2,2,5.1,0,7.1l-19.4,19.4c8.4,13.1,14.3,27.4,17.7,42.6h27.5c2.8,0,5,2.2,5,5v48.6c0,2.8-2.2,5-5,5    h-27.5c-3.4,15.2-9.3,29.5-17.7,42.6l19.4,19.4c2,2,2,5.1,0,7.1l-34.3,34.3c-0.9,0.9-2.2,1.5-3.5,1.5s-2.6-0.5-3.5-1.5l-19.4-19.4    c-13.1,8.4-27.4,14.3-42.6,17.7v27.5C253,394.7,250.8,396.9,248,396.9z M204.5,386.9h38.6v-26.5c0-2.4,1.7-4.5,4.1-4.9    c16.7-3.2,32.3-9.6,46.4-19.2c2-1.4,4.6-1.1,6.3,0.6l18.8,18.8l27.3-27.3l-18.8-18.8c-1.7-1.7-1.9-4.4-0.6-6.3    c9.6-14.1,16.1-29.7,19.2-46.4c0.4-2.4,2.5-4.1,4.9-4.1h26.5v-38.6h-26.5c-2.4,0-4.5-1.7-4.9-4.1c-3.2-16.7-9.6-32.3-19.2-46.4    c-1.4-2-1.1-4.6,0.6-6.3l18.8-18.8l-27.3-27.3l-18.8,18.8c-1.7,1.7-4.4,1.9-6.3,0.6c-14.1-9.6-29.7-16.1-46.4-19.2    c-2.4-0.4-4.1-2.5-4.1-4.9V80.1h-38.6v26.5c0,2.4-1.7,4.5-4.1,4.9c-16.7,3.2-32.3,9.6-46.4,19.2c-2,1.4-4.6,1.1-6.3-0.6    l-18.8-18.8l-27.3,27.3l18.8,18.8c1.7,1.7,1.9,4.4,0.6,6.3c-9.6,14.1-16.1,29.7-19.2,46.4c-0.4,2.4-2.5,4.1-4.9,4.1H70.3v38.6    h26.5c2.4,0,4.5,1.7,4.9,4.1c3.2,16.7,9.6,32.3,19.2,46.4c1.4,2,1.1,4.6-0.6,6.3l-18.8,18.8l27.3,27.3l18.8-18.8    c1.7-1.7,4.4-1.9,6.3-0.6c14.1,9.6,29.7,16.1,46.4,19.2c2.4,0.4,4.1,2.5,4.1,4.9L204.5,386.9L204.5,386.9z"/></g><g><path d="M306.9,238.5c-2.8,0-5-2.2-5-5c0-43.1-35-78.1-78.1-78.1c-2.8,0-5-2.2-5-5s2.2-5,5-5c48.6,0,88.1,39.5,88.1,88.1    C311.9,236.3,309.7,238.5,306.9,238.5z"/></g><g><path d="M223.8,268.6c-19.3,0-35.1-15.7-35.1-35.1s15.7-35.1,35.1-35.1s35.1,15.7,35.1,35.1S243.1,268.6,223.8,268.6z     M223.8,208.5c-13.8,0-25.1,11.2-25.1,25.1c0,13.8,11.2,25.1,25.1,25.1c13.8,0,25.1-11.2,25.1-25.1    C248.8,219.7,237.6,208.5,223.8,208.5z"/></g><g><path d="M151.8,280.1c-1.7,0-3.4-0.9-4.3-2.5c-11.8-20.4-14.9-44.1-8.8-66.9s20.7-41.7,41.1-53.5c2.4-1.4,5.4-0.6,6.8,1.8    c1.4,2.4,0.6,5.4-1.8,6.8c-18.1,10.4-31,27.3-36.4,47.4s-2.6,41.2,7.8,59.3c1.4,2.4,0.6,5.4-1.8,6.8    C153.5,279.9,152.6,280.1,151.8,280.1z"/></g><g><path d="M223.6,321.6c-14.9,0-30.1-3.8-43.9-11.8c-2.4-1.4-3.2-4.4-1.8-6.8c1.4-2.4,4.4-3.2,6.8-1.8    c37.3,21.5,85.2,8.7,106.7-28.6c1.4-2.4,4.4-3.2,6.8-1.8c2.4,1.4,3.2,4.4,1.8,6.8C283.8,305.8,254.1,321.6,223.6,321.6z"/></g><g><path d="M431,238.5c-2.8,0-5-2.2-5-5c0-105.3-82.1-193.8-187-201.6c-2.8-0.2-4.8-2.6-4.6-5.4s2.6-4.8,5.4-4.6    c53.3,4,102.7,27.7,139.3,66.9c36.7,39.4,57,90.8,57,144.7C436,236.3,433.7,238.5,431,238.5z"/></g><g><path d="M223.8,46.9c-11.4,0-20.6-9.2-20.6-20.6s9.2-20.6,20.6-20.6s20.6,9.2,20.6,20.6S235.1,46.9,223.8,46.9z M223.8,15.7    c-5.8,0-10.6,4.8-10.6,10.6s4.8,10.6,10.6,10.6c5.8,0,10.6-4.8,10.6-10.6C234.4,20.5,229.6,15.7,223.8,15.7z"/></g><g><path d="M45.5,344.1c-1.7,0-3.4-0.9-4.3-2.4C13.9,295.8,5,241.6,16.2,189.2C27.5,136.5,58,90.5,102.2,59.6c2.3-1.6,5.4-1,7,1.2    c1.6,2.3,1,5.4-1.2,7C21.6,128.1-3.9,246.2,49.8,336.6c1.4,2.4,0.6,5.4-1.7,6.9C47.2,343.9,46.4,344.1,45.5,344.1z"/></g><g><path d="M54,372.8c-6.5,0-12.9-3.1-16.9-8.8c-3.2-4.5-4.4-10-3.4-15.4s4-10.1,8.5-13.3c9.3-6.5,22.2-4.2,28.7,5.1    c3.2,4.5,4.4,10,3.4,15.4s-4,10.1-8.5,13.3C62.2,371.6,58,372.8,54,372.8z M53.9,341.7c-2.1,0-4.2,0.6-6.1,1.9    c-2.3,1.6-3.9,4.1-4.4,6.8c-0.5,2.8,0.1,5.6,1.8,7.9l0,0c3.3,4.8,10,6,14.8,2.6c2.3-1.6,3.9-4.1,4.4-6.8c0.5-2.8-0.1-5.6-1.8-7.9    C60.6,343.2,57.3,341.7,53.9,341.7z"/></g><g><path d="M223.8,445.8c-24.6,0-49.2-4.3-72.9-13c-2.6-0.9-3.9-3.8-3-6.4c0.9-2.6,3.8-3.9,6.4-3c98.9,36.1,210.3-10.6,253.6-106.4    c1.1-2.5,4.1-3.6,6.6-2.5c2.5,1.1,3.6,4.1,2.5,6.6c-22,48.7-61.3,87-110.7,107.8C279.9,440.2,251.9,445.8,223.8,445.8z"/></g><g><path d="M418.4,325.3c-2.4,0-4.8-0.4-7.1-1.3c-5.2-1.9-9.3-5.7-11.6-10.7c-2.3-5-2.6-10.6-0.7-15.8c1.9-5.2,5.7-9.3,10.7-11.6    c5-2.3,10.6-2.6,15.8-0.7c5.2,1.9,9.3,5.7,11.6,10.7c2.3,5,2.6,10.6,0.7,15.8l0,0c-1.9,5.2-5.7,9.3-10.7,11.6    C424.3,324.6,421.4,325.3,418.4,325.3z M418.4,294c-1.5,0-3,0.3-4.5,1c-2.6,1.2-4.5,3.3-5.5,6c-1,2.7-0.9,5.5,0.3,8.1    c1.2,2.6,3.3,4.5,6,5.5c2.7,1,5.5,0.9,8.1-0.3c2.6-1.2,4.5-3.3,5.5-6c0,0,0,0,0,0c1-2.7,0.9-5.5-0.3-8.1c-1.2-2.6-3.3-4.5-6-5.5    C420.8,294.3,419.6,294,418.4,294z"/></g></g><text x="0" y="465" fill="#000000" font-size="5px" font-weight="bold" font-family="'Helvetica Neue', Helvetica, Arial-Unicode, Arial, Sans-serif">Created by SAM Designs</text><text x="0" y="470" fill="#000000" font-size="5px" font-weight="bold" font-family="'Helvetica Neue', Helvetica, Arial-Unicode, Arial, Sans-serif">from the Noun Project</text></svg>