<svg xmlns="http://www.w3.org/2000/svg" version="1.1" viewBox="-5.0 -10.0 110.0 135.0">
 <path d="m65.676 49.297c-7.4492-7.5859-19.215 2.4336-12.02 10.691 7.4453 7.5859 19.211-2.4375 12.02-10.691zm-2.4727 8.9375c-4.7578 4.0469-11.836-2.4922-7.0781-7.1875 4.7578-4.1797 11.828 2.5508 7.082 7.1875z"/>
 <path d="m91.359 75.895-10.203-10.887c-0.58203-0.58984-1.3945-0.90234-2.2227-0.85547-0.83203 0.046875-1.6016 0.44922-2.1133 1.1055l-4.2656-4.5742c2.8203-6.0742 0.94922-13.297-4.4727-17.234v-18.941c-0.039062-0.45312-0.23828-0.875-0.5625-1.1953-0.054687-0.019531-15.406-15.082-15.465-15.09v0.003906c-0.29688-0.32422-0.71484-0.50781-1.1562-0.51172h-36.73c-4.3867 0.019531-7.9258 3.582-7.918 7.9688v68.422c-0.003906 4.5078 3.6367 8.1641 8.1445 8.1797h45.742c4.3945-0.015625 7.9492-3.5859 7.9453-7.9844v-3.6055c-0.003906-0.85937-0.69922-1.5586-1.5625-1.5586-0.85938 0-1.5586 0.69922-1.5586 1.5586v3.6055c0.003906 2.6758-2.1523 4.8477-4.8242 4.8633h-45.742c-2.7812-0.015624-5.0273-2.2773-5.0195-5.0586v-68.422c-0.011719-2.6602 2.1328-4.8281 4.793-4.8477h35.191l0.011719 5.4805c-0.14453 4.7461 3.0273 9.875 7.9102 9.7344l7.6797 0.015625v15.648c-13.848-5.582-26.008 11.141-15.691 22.375 1.9336 2.0586 4.4336 3.5078 7.1836 4.1602 2.7539 0.65234 5.6367 0.48438 8.293-0.48438l4.2617 4.5664-0.42578 0.38281c-0.53906 0.49219-0.85938 1.1836-0.88672 1.9102-0.027343 0.73047 0.23828 1.4414 0.73438 1.9766l10.207 10.887c7.9961 8.0781 20.348-2.8945 12.723-11.594zm-37.887-55.449c-1.2109-1.8477-0.96875-5.207-0.98438-7.4453l10.184 9.9453-5.3867-0.011718-0.003906-0.003906c-1.6445-0.011719-3.1367-0.98438-3.8086-2.4844zm-1.9258 41.508c-9.7109-11.102 6.0859-24.914 16.238-14.621 9.6797 11.137-6.0117 24.898-16.238 14.621zm16.098 4.3398c1.2109-0.78125 2.2852-1.7578 3.1797-2.8867l3.6836 3.9453-3.1836 2.8828zm21.168 19.434c-2.2969 2.0352-5.8008 1.8711-7.8945-0.375l-9.9336-10.598c2.25-2.0469 5.8594-5.2969 8.1328-7.3594l9.9688 10.637h-0.003907c0.99609 1.0508 1.5273 2.457 1.4805 3.9023-0.050781 1.4492-0.67969 2.8125-1.75 3.793z"/>
 <path d="m40.047 34.133h20.887c0.85156-0.015624 1.5312-0.71094 1.5312-1.5625 0-0.84766-0.67969-1.543-1.5312-1.5586h-20.887c-0.85156 0.015625-1.5312 0.71094-1.5312 1.5586 0 0.85156 0.67969 1.5469 1.5312 1.5625z"/>
 <path d="m40.047 41.945h5.2422c0.86328 0 1.5625-0.69922 1.5625-1.5625 0-0.86328-0.69922-1.5625-1.5625-1.5625h-5.2422c-0.85156 0.019532-1.5312 0.71094-1.5312 1.5625 0 0.85156 0.67969 1.5469 1.5312 1.5625z"/>
 <path d="m27.027 32.727-4.0508 4.4648c-0.92187-1.0586-1.9141-3.6523-3.7188-2.4336-0.33594 0.24219-0.55859 0.60938-0.62109 1.0195-0.066407 0.41016 0.039062 0.82812 0.28125 1.1602l2.668 3.6406v0.003906c0.27734 0.375 0.71094 0.60938 1.1797 0.63672 0.46875 0.023438 0.92188-0.16406 1.2383-0.51172l5.3359-5.8828c0.55859-0.64062 0.50391-1.6133-0.125-2.1836-0.63281-0.57031-1.6055-0.53516-2.1875 0.085937z"/>
 <path d="m23.84 24.461c-6.6328 0.011718-12 5.3867-12.004 12.016 0.60156 15.922 23.402 15.918 24.004 0-0.003906-6.6289-5.3711-12.004-12-12.016zm0 20.914c-11.73-0.375-11.73-17.418 0-17.789 11.73 0.37109 11.727 17.414 0 17.789z"/>
 <path d="m40.047 65.723h5.2422c0.86328 0 1.5625-0.69922 1.5625-1.5586 0-0.86328-0.69922-1.5625-1.5625-1.5625h-5.2422c-0.85156 0.015626-1.5312 0.71094-1.5312 1.5625 0 0.84766 0.67969 1.543 1.5312 1.5586z"/>
 <path d="m40.047 73.535h16.773c0.84766-0.015625 1.5312-0.71094 1.5312-1.5625 0-0.84766-0.68359-1.543-1.5312-1.5586h-16.773c-0.85156 0.015626-1.5312 0.71094-1.5312 1.5586 0 0.85156 0.67969 1.5469 1.5312 1.5625z"/>
 <path d="m23.84 56.051c-6.6328 0.011719-12 5.3867-12.004 12.016 0.60156 15.922 23.402 15.918 24.004 0-0.003906-6.6289-5.3711-12.004-12-12.016zm0 20.914c-11.73-0.375-11.73-17.418 0-17.789 11.73 0.37109 11.73 17.418 0 17.789z"/>
 <path d="m26.129 67.973 2.5352-2.3633c0.62891-0.58984 0.66016-1.5742 0.074219-2.207-0.58594-0.62891-1.5742-0.66406-2.2031-0.078125l-2.6953 2.5117-2.6953-2.5117c-0.63281-0.58984-1.6211-0.55469-2.2109 0.078125-0.58594 0.62891-0.55078 1.6172 0.078125 2.207l2.5352 2.3633-2.7383 2.5547c-0.45703 0.44141-0.60547 1.1172-0.37109 1.707 0.23047 0.59375 0.80078 0.98438 1.4375 0.99609 0.39453 0 0.77344-0.14844 1.0625-0.41797l2.8984-2.7031 2.8984 2.7031h0.003906c0.62891 0.58594 1.6172 0.55469 2.207-0.078125 0.58984-0.62891 0.55469-1.6172-0.078124-2.207z"/>
<text x="0.0" y="117.5" font-size="5.0" font-weight="bold" font-family="Arbeit Regular, Helvetica, Arial-Unicode, Arial, Sans-serif" fill="#000000">Created by metami septiana</text><text x="0.0" y="122.5" font-size="5.0" font-weight="bold" font-family="Arbeit Regular, Helvetica, Arial-Unicode, Arial, Sans-serif" fill="#000000">from Noun Project</text></svg>