<svg xmlns="http://www.w3.org/2000/svg" data-name="Layer 1" viewBox="0 0 100 125" x="0px" y="0px"><path d="M93.921,32.494l-3.84-.529A15.818,15.818,0,0,0,88.7,28.631l2.341-3.09a1.249,1.249,0,0,0-.112-1.639L87.236,20.21A1.25,1.25,0,0,0,85.6,20.1l-3.09,2.342a15.818,15.818,0,0,0-3.334-1.382l-.529-3.839a1.25,1.25,0,0,0-1.238-1.08H72.184a1.25,1.25,0,0,0-1.238,1.08l-.529,3.839a15.818,15.818,0,0,0-3.334,1.382L63.993,20.1a1.25,1.25,0,0,0-1.639.113L58.662,23.9a1.25,1.25,0,0,0-.113,1.639l2.342,3.09a15.818,15.818,0,0,0-1.382,3.334l-3.84.529a1.25,1.25,0,0,0-1.079,1.238v.486A37.329,37.329,0,0,0,5,69.475a1.25,1.25,0,0,0,1.25,1.25H16.511a1.25,1.25,0,0,0,1.25-1.25,24.568,24.568,0,0,1,49.135,0,1.25,1.25,0,0,0,1.25,1.25H78.407a1.25,1.25,0,0,0,1.25-1.25,37.16,37.16,0,0,0-2.309-12.927h.058a1.25,1.25,0,0,0,1.238-1.079l.529-3.84a15.769,15.769,0,0,0,3.334-1.383l3.09,2.343a1.251,1.251,0,0,0,1.639-.113l3.692-3.692a1.25,1.25,0,0,0,.113-1.639L88.7,44.055a15.818,15.818,0,0,0,1.382-3.334l3.839-.529A1.25,1.25,0,0,0,95,38.954V33.732A1.25,1.25,0,0,0,93.921,32.494ZM43.578,42.437V34.671a34.589,34.589,0,0,1,15.068,4.041l-3.883,6.726A26.885,26.885,0,0,0,43.578,42.437Zm-13.684,3-3.883-6.726a34.589,34.589,0,0,1,15.067-4.041v7.766A26.884,26.884,0,0,0,29.894,45.438Zm-14.6,22.787H7.522a34.592,34.592,0,0,1,4.045-15.067l6.724,3.882A26.886,26.886,0,0,0,15.289,68.225Zm4.256-13.348L12.82,51A35.093,35.093,0,0,1,23.848,39.966l3.883,6.726A27.283,27.283,0,0,0,19.545,54.877Zm37.381-8.185,3.883-6.726A35.093,35.093,0,0,1,71.837,51l-6.725,3.883A27.275,27.275,0,0,0,56.926,46.692ZM69.367,68.225a26.87,26.87,0,0,0-3-11.185l6.724-3.882a34.592,34.592,0,0,1,4.045,15.067ZM92.5,37.864l-3.592.5a1.249,1.249,0,0,0-1.048.962,13.3,13.3,0,0,1-1.722,4.153A1.251,1.251,0,0,0,86.2,44.9l2.191,2.891-2.151,2.151-2.891-2.191a1.251,1.251,0,0,0-1.422-.061,13.314,13.314,0,0,1-4.153,1.722,1.249,1.249,0,0,0-.962,1.048l-.5,3.59A37.557,37.557,0,0,0,57.09,35.192v-.37l3.592-.5a1.249,1.249,0,0,0,1.048-.962,13.314,13.314,0,0,1,1.722-4.153,1.251,1.251,0,0,0-.061-1.422L61.2,24.9l2.151-2.151,2.891,2.191A1.251,1.251,0,0,0,67.664,25a13.314,13.314,0,0,1,4.153-1.722,1.249,1.249,0,0,0,.962-1.048l.5-3.592h3.042l.5,3.592a1.25,1.25,0,0,0,.961,1.048A13.286,13.286,0,0,1,81.926,25a1.251,1.251,0,0,0,1.422-.061l2.891-2.191L88.39,24.9,86.2,27.79a1.251,1.251,0,0,0-.061,1.422,13.3,13.3,0,0,1,1.722,4.153,1.249,1.249,0,0,0,1.048.962l3.592.5ZM74.8,28.409a7.934,7.934,0,1,0,7.934,7.934A7.943,7.943,0,0,0,74.8,28.409Zm0,13.368a5.434,5.434,0,1,1,5.434-5.434A5.441,5.441,0,0,1,74.8,41.777ZM53.876,53.27a2.871,2.871,0,0,0-5.258-.693l-5.071,8.782a5.67,5.67,0,0,0-1.426.193h0a5.667,5.667,0,1,0,6.4,2.678l5.07-8.783A2.848,2.848,0,0,0,53.876,53.27ZM46.335,68.616a3.171,3.171,0,1,1-3.567-4.649h0a3.171,3.171,0,0,1,3.567,4.649ZM51.426,54.2l-4.688,8.121a5.723,5.723,0,0,0-.644-.372l4.689-8.12a.374.374,0,0,1,.507-.136.376.376,0,0,1,.136.507ZM73.97,74.911H10.686a4.476,4.476,0,0,0,0,8.951H73.97a4.476,4.476,0,1,0,0-8.951Zm-30.392,2.5H58.512v3.951H43.578Zm-2.5,3.951H26.145V77.411H41.078ZM8.711,79.386a1.977,1.977,0,0,1,1.975-1.975H23.645v3.951H10.686A1.977,1.977,0,0,1,8.711,79.386ZM73.97,81.362H61.012V77.411H73.97a1.976,1.976,0,1,1,0,3.951Z"/><text x="0" y="115" fill="#000000" font-size="5px" font-weight="bold" font-family="'Helvetica Neue', Helvetica, Arial-Unicode, Arial, Sans-serif">Created by kholifah</text><text x="0" y="120" fill="#000000" font-size="5px" font-weight="bold" font-family="'Helvetica Neue', Helvetica, Arial-Unicode, Arial, Sans-serif">from the Noun Project</text></svg>